<svg viewBox="0 0 24 24" fill="none" xmlns="http://www.w3.org/2000/svg">
<path d="M12 3V5.773V5.773C12.002 5.9083 11.8939 6.01956 11.7586 6.02152C11.7146 6.02216 11.6712 6.01093 11.633 5.989V5.989C10.7985 5.51247 9.73571 5.80267 9.25918 6.63717C8.78265 7.47167 9.07284 8.53447 9.90734 9.011C10.442 9.31633 11.0983 9.31633 11.633 9.011V9.011C11.7503 8.94361 11.9001 8.98409 11.9675 9.10142C11.9894 9.1396 12.0006 9.18298 12 9.227V12H14.773V12C14.9083 12.002 15.0196 11.8939 15.0215 11.7586C15.0222 11.7146 15.0109 11.6712 14.989 11.633V11.633C14.5125 10.7985 14.8027 9.7357 15.6372 9.25917C16.4717 8.78264 17.5345 9.07283 18.011 9.90734C18.3163 10.442 18.3163 11.0983 18.011 11.633V11.633C17.9436 11.7503 17.9841 11.9001 18.1014 11.9675C18.1396 11.9894 18.183 12.0006 18.227 12H21" stroke="white" stroke-width="1.5" stroke-linecap="round" stroke-linejoin="round"/>
<path d="M12 21V18.227V18.227C11.998 18.0917 12.1061 17.9804 12.2414 17.9785C12.2854 17.9778 12.3288 17.9891 12.367 18.011H12.367C13.2015 18.4875 14.2643 18.1973 14.7408 17.3628C15.2174 16.5283 14.9272 15.4655 14.0927 14.989C13.558 14.6837 12.9017 14.6837 12.367 14.989V14.989C12.2497 15.0564 12.0999 15.0159 12.0325 14.8986C12.0106 14.8604 11.9994 14.817 12 14.773V12H9.227V12C9.0917 11.998 8.98043 12.1061 8.97847 12.2414C8.97783 12.2854 8.98907 12.3288 9.011 12.367V12.367C9.48753 13.2015 9.19733 14.2643 8.36283 14.7408C7.52833 15.2174 6.46553 14.9272 5.989 14.0927C5.68367 13.558 5.68367 12.9017 5.989 12.367V12.367C6.05639 12.2497 6.01591 12.0999 5.89858 12.0325C5.8604 12.0106 5.81702 11.9994 5.773 12H3" stroke="white" stroke-width="1.5" stroke-linecap="round" stroke-linejoin="round"/>
<rect x="2.75" y="2.75" width="18.5" height="18.5" rx="9.25" stroke="white" stroke-width="1.5"/>
</svg>
